<svg width="510" height="510" viewBox="0 0 510 510" fill="none" xmlns="http://www.w3.org/2000/svg">
<g clip-path="url(#clip0_2429_45)">
<path d="M119.017 191.355L-122 449.797V510H75.5478H298.058H632.899V420.986L469.783 248.118C467.918 246.398 463.327 242.355 459.884 239.947C455.408 237.883 450.846 238.801 449.125 239.517C446.112 240.664 439.312 243.387 436.213 245.107C433.114 246.828 430.618 245.251 429.757 244.247C384.423 195.512 292.377 96.7505 286.868 91.5902C284.458 88.8379 279.265 86.7166 276.969 86H266.64C263.541 86 258.176 89.7268 255.88 91.5902L158.182 191.355C156.805 192.731 151.583 192.788 149.144 192.645L132.359 190.065C122.46 187.915 120.739 189.635 119.017 191.355Z" fill="#842616"/>
<path d="M-51.846 405.139L-76.0105 434.847L134.134 304.82C127.518 327.783 113.939 374.914 112.559 379.736C111.178 384.558 113.134 384.328 114.285 383.611C128.093 370.981 156.659 344.861 160.456 341.417C164.253 337.972 166.929 334.528 167.792 333.236L216.552 240.668C217.559 238.945 220.349 235.243 223.456 234.209C227.34 232.918 238.127 226.89 254.093 217.848C277.395 205.362 273.511 133.891 273.943 116.238C274.288 102.116 268.621 104.326 265.744 107.196L166.929 212.682C160.168 211.964 145.181 210.357 139.312 209.668C133.444 208.979 128.812 212.251 127.23 213.973C73.4352 271.524 -35.6213 388.089 -41.4898 393.944C-47.3584 399.455 -50.8392 403.703 -51.846 405.139Z" fill="#DF4A2B"/>
<path d="M205.944 378.762L75.418 510H307.608L205.944 378.762Z" fill="#DF4A2B"/>
<path d="M299.633 319.628C297.485 338.537 280.298 332.52 223.154 364.321C213.226 369.846 206.684 375.822 202.719 381.94C188.427 403.991 207.607 427.881 222.295 439.094L297.358 510H399.587C378.695 493.598 333.982 458.888 301.781 435.227C259.675 404.286 260.964 395.261 266.549 385.378C271.018 377.47 289.608 366.04 298.344 361.313C312.38 356.012 340.708 340.256 341.739 319.628C343.888 302.439 290.61 279.234 286.743 278.374C282.876 277.515 269.557 277.515 268.268 279.234C267.237 280.609 270.416 287.828 272.135 291.266C282.017 294.417 301.352 304.502 299.633 319.628Z" fill="#F5E4D5"/>
</g>
<defs>
<clipPath id="clip0_2429_45">
<rect width="510" height="510" fill="white"/>
</clipPath>
</defs>
</svg>
