<svg width="877" height="877" viewBox="0 0 877 877" fill="none" xmlns="http://www.w3.org/2000/svg">
<g clip-path="url(#clip0_2429_19)">
<rect width="877" height="877" fill="url(#paint0_linear_2429_19)"/>
<path d="M280 507.5L0 808V878H229.5H488H877V774.5L687.501 573.5C685.334 571.5 680.001 566.8 676.001 564C670.801 561.6 665.501 562.667 663.501 563.5C660.001 564.833 652.101 568 648.501 570C644.901 572 642.001 570.167 641.001 569C588.334 512.333 481.4 397.5 475 391.5C472.2 388.3 466.167 385.833 463.5 385H451.5C447.9 385 441.667 389.333 439 391.5L325.5 507.5C323.9 509.1 317.834 509.167 315 509L295.5 506C284 503.5 282 505.5 280 507.5Z" fill="#842616"/>
<path d="M82 756L54 790.5L297.5 639.5C289.833 666.167 274.1 720.9 272.5 726.5C270.9 732.1 273.167 731.833 274.5 731C290.5 716.333 323.6 686 328 682C332.4 678 335.5 674 336.5 672.5L393 565C394.167 563 397.4 558.7 401 557.5C405.5 556 418 549 436.5 538.5C463.5 524 459 441 459.5 420.5C459.9 404.1 453.333 406.667 450 410L335.5 532.5C327.667 531.667 310.3 529.8 303.5 529C296.7 528.2 291.333 532 289.5 534C227.167 600.833 100.8 736.2 94 743C87.2 749.4 83.1667 754.333 82 756Z" fill="#DF4A2B"/>
<path d="M380.5 726L229 878.5H498.5L380.5 726Z" fill="#DF4A2B"/>
<path d="M489.641 656.157C487.141 678.157 467.141 671.157 400.641 708.157C389.088 714.585 381.475 721.539 376.861 728.657C360.229 754.314 382.55 782.11 399.641 795.157L486.994 877.657H605.96C581.647 858.573 529.614 818.188 492.141 790.657C443.141 754.657 444.641 744.157 451.141 732.657C456.341 723.457 477.975 710.157 488.141 704.657C504.475 698.49 537.441 680.157 538.641 656.157C541.141 636.157 479.141 609.157 474.641 608.157C470.141 607.157 454.641 607.157 453.141 609.157C451.941 610.757 455.641 619.157 457.641 623.157C469.141 626.824 491.641 638.557 489.641 656.157Z" fill="#F5E4D5"/>
<path d="M686.604 232.92V212.636H782.172V232.92H746.547V329H722.229V232.92H686.604Z" fill="#FBF0E3"/>
<path d="M670.794 212.636V329H646.192V212.636H670.794Z" fill="#FBF0E3"/>
<path d="M601.348 212.636H625.95V288.205C625.95 296.689 623.924 304.114 619.871 310.477C615.856 316.841 610.231 321.803 602.996 325.364C595.761 328.886 587.333 330.648 577.712 330.648C568.053 330.648 559.606 328.886 552.371 325.364C545.136 321.803 539.511 316.841 535.496 310.477C531.481 304.114 529.473 296.689 529.473 288.205V212.636H554.075V286.102C554.075 290.534 555.041 294.473 556.973 297.92C558.943 301.367 561.708 304.076 565.269 306.045C568.829 308.015 572.977 309 577.712 309C582.484 309 586.632 308.015 590.155 306.045C593.716 304.076 596.462 301.367 598.394 297.92C600.363 294.473 601.348 290.534 601.348 286.102V212.636Z" fill="#FBF0E3"/>
<path d="M487.754 246.102C487.3 241.519 485.349 237.958 481.902 235.42C478.455 232.883 473.777 231.614 467.868 231.614C463.853 231.614 460.463 232.182 457.698 233.318C454.932 234.417 452.811 235.951 451.334 237.92C449.895 239.89 449.175 242.125 449.175 244.625C449.099 246.708 449.535 248.526 450.482 250.079C451.467 251.633 452.811 252.977 454.516 254.114C456.22 255.212 458.19 256.178 460.425 257.011C462.66 257.807 465.046 258.489 467.584 259.057L478.038 261.557C483.114 262.693 487.773 264.208 492.016 266.102C496.258 267.996 499.932 270.326 503.038 273.091C506.145 275.856 508.55 279.114 510.254 282.864C511.997 286.614 512.887 290.913 512.925 295.761C512.887 302.883 511.069 309.057 507.47 314.284C503.91 319.473 498.758 323.508 492.016 326.386C485.311 329.227 477.224 330.648 467.754 330.648C458.36 330.648 450.179 329.208 443.209 326.33C436.277 323.451 430.86 319.189 426.959 313.545C423.095 307.864 421.069 300.837 420.879 292.466H444.686C444.951 296.367 446.069 299.625 448.038 302.239C450.046 304.814 452.717 306.765 456.05 308.091C459.421 309.379 463.228 310.023 467.47 310.023C471.637 310.023 475.254 309.417 478.323 308.204C481.429 306.992 483.834 305.307 485.538 303.148C487.243 300.989 488.095 298.508 488.095 295.704C488.095 293.091 487.319 290.894 485.766 289.114C484.251 287.333 482.016 285.818 479.061 284.568C476.145 283.318 472.565 282.182 468.323 281.159L455.652 277.977C445.841 275.591 438.095 271.86 432.413 266.784C426.732 261.708 423.91 254.871 423.948 246.273C423.91 239.227 425.785 233.072 429.573 227.807C433.398 222.542 438.645 218.432 445.311 215.477C451.978 212.523 459.554 211.045 468.038 211.045C476.675 211.045 484.213 212.523 490.652 215.477C497.129 218.432 502.167 222.542 505.766 227.807C509.364 233.072 511.22 239.17 511.334 246.102H487.754Z" fill="#FBF0E3"/>
<path d="M319.629 329V212.636H365.538C374.326 212.636 381.826 214.208 388.038 217.352C394.288 220.458 399.042 224.871 402.3 230.591C405.595 236.273 407.243 242.958 407.243 250.648C407.243 258.375 405.576 265.023 402.243 270.591C398.91 276.121 394.08 280.364 387.754 283.318C381.467 286.273 373.853 287.75 364.913 287.75H334.175V267.977H360.936C365.633 267.977 369.535 267.333 372.641 266.045C375.747 264.758 378.057 262.826 379.573 260.25C381.126 257.674 381.902 254.473 381.902 250.648C381.902 246.784 381.126 243.527 379.573 240.875C378.057 238.223 375.728 236.216 372.584 234.852C369.478 233.451 365.557 232.75 360.823 232.75H344.232V329H319.629ZM382.47 276.045L411.391 329H384.232L355.936 276.045H382.47Z" fill="#FBF0E3"/>
<path d="M274.786 212.636H299.388V288.205C299.388 296.689 297.361 304.114 293.308 310.477C289.293 316.841 283.668 321.803 276.433 325.364C269.199 328.886 260.77 330.648 251.149 330.648C241.49 330.648 233.043 328.886 225.808 325.364C218.574 321.803 212.949 316.841 208.933 310.477C204.918 304.114 202.911 296.689 202.911 288.205V212.636H227.513V286.102C227.513 290.534 228.479 294.473 230.411 297.92C232.38 301.367 235.145 304.076 238.706 306.045C242.267 308.015 246.414 309 251.149 309C255.922 309 260.07 308.015 263.592 306.045C267.153 304.076 269.899 301.367 271.831 297.92C273.801 294.473 274.786 290.534 274.786 286.102V212.636Z" fill="#FBF0E3"/>
<path d="M99.3167 329V212.636H145.226C154.051 212.636 161.57 214.322 167.783 217.693C173.995 221.027 178.73 225.667 181.987 231.614C185.283 237.523 186.93 244.341 186.93 252.068C186.93 259.795 185.264 266.614 181.93 272.523C178.597 278.432 173.767 283.034 167.442 286.33C161.154 289.625 153.54 291.273 144.601 291.273H115.339V271.557H140.623C145.358 271.557 149.26 270.742 152.328 269.114C155.434 267.447 157.745 265.155 159.26 262.239C160.813 259.284 161.589 255.894 161.589 252.068C161.589 248.205 160.813 244.833 159.26 241.955C157.745 239.038 155.434 236.784 152.328 235.193C149.222 233.564 145.283 232.75 140.51 232.75H123.919V329H99.3167Z" fill="#FBF0E3"/>
<path d="M554.083 189V72.6364H578.685V123.943H580.219L622.094 72.6364H651.583L608.401 124.739L652.094 189H622.662L590.787 141.159L578.685 155.932V189H554.083Z" fill="#FBF0E3"/>
<path d="M454.452 189H428.088L468.259 72.6364H499.963L540.077 189H513.713L484.565 99.2273H483.656L454.452 189ZM452.804 143.261H515.077V162.466H452.804V143.261Z" fill="#FBF0E3"/>
<path d="M336.426 189V72.6364H414.835V92.9204H361.029V120.648H410.801V140.932H361.029V168.716H415.063V189H336.426Z" fill="#FBF0E3"/>
<path d="M232.832 189V72.6364H278.741C287.567 72.6364 295.086 74.322 301.298 77.6932C307.51 81.0265 312.245 85.6667 315.503 91.6136C318.798 97.5227 320.446 104.341 320.446 112.068C320.446 119.795 318.779 126.614 315.446 132.523C312.113 138.432 307.283 143.034 300.957 146.33C294.669 149.625 287.056 151.273 278.116 151.273H248.855V131.557H274.139C278.874 131.557 282.775 130.742 285.844 129.114C288.95 127.447 291.26 125.155 292.775 122.239C294.328 119.284 295.105 115.894 295.105 112.068C295.105 108.205 294.328 104.833 292.775 101.955C291.26 99.0379 288.95 96.7841 285.844 95.1932C282.738 93.5644 278.798 92.75 274.025 92.75H257.435V189H232.832Z" fill="#FBF0E3"/>
</g>
<defs>
<linearGradient id="paint0_linear_2429_19" x1="438.5" y1="0" x2="438.5" y2="877" gradientUnits="userSpaceOnUse">
<stop stop-color="#E85E37"/>
<stop offset="1" stop-color="#F08B4C"/>
</linearGradient>
<clipPath id="clip0_2429_19">
<rect width="877" height="877" fill="white"/>
</clipPath>
</defs>
</svg>
